name C:\Users\r0593348\3dpredictsim\Results\Batchsim_tmt_linear\Pog_s1_tmt_bCst_d00_k1000_ig24_act.mot
datacolumns 128
datarows 4
range 1.87934138 1.91692821
endheader
time	pelvis_tilt	pelvis_list	pelvis_rotation	pelvis_tx	pelvis_ty	pelvis_tz	hip_flexion_l	hip_adduction_l	hip_rotation_l	hip_flexion_r	hip_adduction_r	hip_rotation_r	knee_angle_l	knee_angle_r	ankle_angle_l	ankle_angle_r	subtalar_angle_l	subtalar_angle_r	tmt_angle_l	tmt_angle_r	mtp_angle_l	mtp_angle_r	lumbar_extension	lumbar_bending	lumbar_rotation	arm_flex_l	arm_add_l	arm_rot_l	arm_flex_r	arm_add_r	arm_rot_r	elbow_flex_l	elbow_flex_r	pro_sup_l	pro_sup_r	glut_med1_l/activation	glut_med2_l/activation	glut_med3_l/activation	glut_min1_l/activation	glut_min2_l/activation	glut_min3_l/activation	semimem_l/activation	semiten_l/activation	bifemlh_l/activation	bifemsh_l/activation	sar_l/activation	add_long_l/activation	add_brev_l/activation	add_mag1_l/activation	add_mag2_l/activation	add_mag3_l/activation	tfl_l/activation	pect_l/activation	grac_l/activation	glut_max1_l/activation	glut_max2_l/activation	glut_max3_l/activation	iliacus_l/activation	psoas_l/activation	quad_fem_l/activation	gem_l/activation	peri_l/activation	rect_fem_l/activation	vas_med_l/activation	vas_int_l/activation	vas_lat_l/activation	med_gas_l/activation	lat_gas_l/activation	soleus_l/activation	tib_post_l/activation	flex_dig_l/activation	flex_hal_l/activation	tib_ant_l/activation	per_brev_l/activation	per_long_l/activation	per_tert_l/activation	ext_dig_l/activation	ext_hal_l/activation	ercspn_l/activation	intobl_l/activation	extobl_l/activation	glut_med1_r/activation	glut_med2_r/activation	glut_med3_r/activation	glut_min1_r/activation	glut_min2_r/activation	glut_min3_r/activation	semimem_r/activation	semiten_r/activation	bifemlh_r/activation	bifemsh_r/activation	sar_r/activation	add_long_r/activation	add_brev_r/activation	add_mag1_r/activation	add_mag2_r/activation	add_mag3_r/activation	tfl_r/activation	pect_r/activation	grac_r/activation	glut_max1_r/activation	glut_max2_r/activation	glut_max3_r/activation	iliacus_r/activation	psoas_r/activation	quad_fem_r/activation	gem_r/activation	peri_r/activation	rect_fem_r/activation	vas_med_r/activation	vas_int_r/activation	vas_lat_r/activation	med_gas_r/activation	lat_gas_r/activation	soleus_r/activation	tib_post_r/activation	flex_dig_r/activation	flex_hal_r/activation	tib_ant_r/activation	per_brev_r/activation	per_long_r/activation	per_tert_r/activation	ext_dig_r/activation	ext_hal_r/activation	ercspn_r/activation	intobl_r/activation	extobl_r/activation	
          1.87934138	         -2.92963985	          1.41327218	         -8.59295614	          2.34917673	          0.85496930	          0.00303648	         33.49335469	          0.66954759	         -0.82027837	        -16.66767202	         -2.45773550	          7.81118241	        -15.52154907	        -15.56454731	          9.60134788	         -8.15279028	         -1.21386766	         12.92176058	          0.02303283	          1.01828365	         -0.08983653	         30.19667710	         -0.58338224	          1.10773892	          3.33800017	        -10.67958786	        -13.57938241	         10.94633154	          3.91084163	        -13.51567783	         18.27103006	         16.22119905	         44.55145745	         86.51662706	         86.51662706	          0.05000035	          0.05000015	          0.05000060	          0.05000016	          0.05000020	          0.05000055	          0.16697994	          0.06044129	          0.12830804	          0.05630392	          0.05000153	          0.06452332	          0.08459039	          0.19091652	          0.15076553	          0.11497140	          0.06044084	          0.06043756	          0.06044369	          0.05000035	          0.05000155	          0.09495662	          0.06092684	          0.06442394	          0.17061528	          0.05000152	          0.05000061	          0.05000029	          0.08402268	          0.09263291	          0.08073976	          0.06044078	          0.06044079	          0.06044078	          0.05000007	          0.05000048	          0.05000218	          0.50759270	          0.34258614	          0.21123671	          0.10088542	          0.56218571	          0.31577129	          0.05088779	          0.14386147	          0.11548990	          0.18100358	          0.07545790	          0.07106859	          0.20823720	          0.12905308	          0.07628057	          0.05000122	          0.05000016	          0.05000014	          0.05000087	          0.10673021	          0.05000032	          0.05000013	          0.05000014	          0.05000032	          0.05000026	          0.17991289	          0.05000111	          0.05000036	          0.05000315	          0.05000144	          0.05000049	          0.41431286	          0.58588544	          0.05000018	          0.05000078	          0.06546975	          0.22795574	          0.10370114	          0.09919703	          0.09418167	          0.15600240	          0.24255637	          0.06007144	          0.17788318	          0.21008941	          0.22654692	          0.05000001	          0.31346584	          0.32546389	          0.05000004	          0.18003476	          0.05000008	          0.05000000	          0.05000001	          0.05000003	
          1.89187032	         -2.92904794	          1.36258534	         -8.78791378	          2.36946636	          0.85353929	          0.00267572	         32.82297922	          0.93522679	         -0.62439835	        -17.00492599	         -2.72642563	          7.57944045	        -15.56936511	        -16.63607276	          8.96440943	        -11.11489394	         -1.60565487	         13.36816583	          0.03890756	          0.94330242	         -0.08426090	         31.80927331	         -0.32214689	          0.94415670	          3.44617946	        -12.16881992	        -13.56762594	         10.84197417	          3.39504597	        -13.58385983	         18.50994422	         16.21443808	         45.88686669	         86.51662706	         86.51662706	          0.07529829	          0.07582299	          0.05000023	          0.06044123	          0.06044073	          0.05000264	          0.13813521	          0.05000050	          0.10614363	          0.05000025	          0.05000273	          0.05337740	          0.06997798	          0.15793745	          0.20185321	          0.13535887	          0.05000044	          0.05000092	          0.05000254	          0.06044073	          0.07457868	          0.11197174	          0.05040223	          0.05329525	          0.38811492	          0.06044129	          0.06551910	          0.07306168	          0.21947174	          0.22030946	          0.19648687	          0.05000000	          0.05000001	          0.05000000	          0.05000009	          0.07306079	          0.05000077	          0.68059943	          0.39110250	          0.23834487	          0.51008935	          0.63978773	          0.44993099	          0.05000000	          0.11901026	          0.09553971	          0.14973638	          0.06242309	          0.06044113	          0.17226558	          0.10676000	          0.06310369	          0.05000172	          0.05000013	          0.05000018	          0.05000027	          0.08829340	          0.12676375	          0.14176803	          0.08419459	          0.05000618	          0.05000068	          0.14883406	          0.08284873	          0.06023003	          0.05000334	          0.05000218	          0.05000180	          0.34274281	          0.48467726	          0.07306167	          0.06044798	          0.06044089	          0.18857775	          0.10721478	          0.12647021	          0.10413738	          0.12905392	          0.20065621	          0.05000000	          0.14715492	          0.17379775	          0.18741231	          0.20254620	          0.31776530	          0.30167433	          0.48235975	          0.36720855	          0.05000057	          0.05270789	          0.06297376	          0.06044078	
          1.90439927	         -2.92228433	          1.31403630	         -8.94097112	          2.38997591	          0.85181240	          0.00233106	         32.03172897	          1.19704485	         -0.36753521	        -17.15066511	         -2.95402354	          7.35013922	        -16.27918775	        -18.06603894	          8.19871892	        -13.87076733	         -2.01465038	         13.77068034	         -0.03717143	          0.78456079	         -0.15403883	         32.62438003	         -0.05353254	          0.76084139	          3.53674459	        -13.63619337	        -13.56380297	         10.80578528	          2.80781276	        -13.66182110	         18.67575666	         16.17722842	         47.19756549	         86.51662706	         86.51662706	          0.23945005	          0.23428209	          0.42327742	          0.05000051	          0.05000019	          0.33535115	          0.11845314	          0.05000049	          0.10294133	          0.05000008	          0.05000023	          0.07306215	          0.18751382	          0.23906164	          0.22230832	          0.16290947	          0.05000017	          0.06045229	          0.12759358	          0.05000011	          0.17323409	          0.17498289	          0.05505150	          0.05000043	          0.32107050	          0.05000071	          0.27820414	          0.06044072	          0.18155937	          0.18225239	          0.16254500	          0.06044075	          0.06044076	          0.06044077	          0.06044071	          0.06044018	          0.06044074	          0.56303032	          0.35780015	          0.19717232	          0.42197663	          0.65736486	          0.43674480	          0.05560319	          0.10250944	          0.07903580	          0.13940205	          0.05163994	          0.05000033	          0.14250792	          0.08831790	          0.05220296	          0.05000312	          0.06044074	          0.06044061	          0.05000026	          0.07304141	          0.18137042	          0.26711801	          0.12975838	          0.06059478	          0.11038199	          0.12312389	          0.06853895	          0.05005188	          0.05000800	          0.05000924	          0.06002411	          0.28353606	          0.40095223	          0.06044079	          0.05000624	          0.05000012	          0.15600207	          0.08869412	          0.10462328	          0.08614830	          0.10676063	          0.16599405	          0.05000002	          0.12173479	          0.14377525	          0.15503797	          0.40888204	          0.42841648	          0.32179577	          0.71794758	          0.50095641	          0.27467290	          0.07787630	          0.05209543	          0.05000009	
          1.91692821	         -2.91229104	          1.26959351	         -9.04485487	          2.41033478	          0.84987715	          0.00198924	         31.15952713	          1.45678178	         -0.08651259	        -17.05313848	         -3.13474787	          7.13986707	        -17.10615380	        -19.93405097	          7.62847407	        -16.03466667	         -2.43313999	         14.12701037	         -0.02191616	          0.58829307	         -0.15915092	         31.78657419	          0.19157012	          0.55635611	          3.60678236	        -14.99646486	        -13.57210256	         10.89883492	          2.20877269	        -13.73619414	         18.76769323	         16.05304129	         48.44699489	         86.51662706	         86.51662706	          0.30949329	          0.39666814	          0.49443195	          0.14860998	          0.23039606	          0.27742160	          0.09799108	          0.08910865	          0.08515887	          0.07306087	          0.05000048	          0.06044112	          0.15512194	          0.19776534	          0.21173815	          0.17576921	          0.05000013	          0.05000969	          0.10555271	          0.27155477	          0.23718061	          0.20061634	          0.05000003	          0.05000003	          0.26560781	          0.07385425	          0.23014626	          0.05000001	          0.15019642	          0.22664405	          0.19541997	          0.05000000	          0.05000001	          0.05000000	          0.05000000	          0.05000016	          0.05000010	          0.73035669	          0.41407148	          0.20667980	          0.68504596	          0.75656940	          0.55093371	          0.06685442	          0.08480158	          0.06538284	          0.27473554	          0.05000009	          0.05000004	          0.20358640	          0.07306160	          0.05000033	          0.05000273	          0.05000018	          0.05000023	          0.05000019	          0.06042438	          0.15003989	          0.22594216	          0.10734369	          0.05012812	          0.09131437	          0.10185503	          0.06044074	          0.05000038	          0.05000071	          0.05000047	          0.05000031	          0.23455692	          0.38961644	          0.05000008	          0.05000032	          0.05000025	          0.12905365	          0.07337478	          0.08831813	          0.08831810	          0.08831837	          0.13731958	          0.05000000	          0.10070584	          0.11893899	          0.12825611	          0.33938672	          0.35441015	          0.26620755	          0.69255384	          0.67268715	          0.22722484	          0.12094774	          0.05000000	          0.05000002	
